<svg xmlns="http://www.w3.org/2000/svg" version="1.1" xmlns:xlink="http://www.w3.org/1999/xlink" width="512" height="512" x="0" y="0" viewBox="0 0 68 68" style="enable-background:new 0 0 512 512" xml:space="preserve" class=""><g><path fill="#00fff0" d="M51.783 12.39v48.46c0 2.83-2.29 5.12-5.12 5.12H7.093c-2.82 0-5.12-2.29-5.12-5.12V12.39c0-2.82 2.3-5.12 5.12-5.12h39.57c2.83 0 5.12 2.3 5.12 5.12z" opacity="1" data-original="#dbdbdb" class=""></path><path d="M46.663 66.47H7.093a5.626 5.626 0 0 1-5.62-5.62V12.39c0-3.1 2.52-5.62 5.62-5.62h39.57a5.627 5.627 0 0 1 5.62 5.62v48.46c0 3.099-2.522 5.62-5.62 5.62zM7.093 7.77a4.625 4.625 0 0 0-4.62 4.62v48.46a4.625 4.625 0 0 0 4.62 4.62h39.57a4.625 4.625 0 0 0 4.62-4.62V12.39a4.625 4.625 0 0 0-4.62-4.62H7.093z" fill="#000000" opacity="1" data-original="#000000" class=""></path><path fill="#ffffff" d="M7.097 61.968a1.122 1.122 0 0 1-1.12-1.122V12.394c0-.619.502-1.121 1.12-1.121H46.66c.619 0 1.122.502 1.122 1.12v48.453c0 .619-.503 1.122-1.122 1.122z" opacity="1" data-original="#ffffff" class=""></path><path d="M46.66 62.468H7.098a1.623 1.623 0 0 1-1.621-1.622V12.394c0-.894.728-1.622 1.621-1.622h39.564c.893 0 1.62.728 1.62 1.622v48.452c0 .894-.727 1.622-1.62 1.622zM7.098 11.772a.622.622 0 0 0-.621.622v48.452c0 .343.278.622.621.622h39.564a.622.622 0 0 0 .62-.622V12.394a.622.622 0 0 0-.62-.622z" fill="#000000" opacity="1" data-original="#000000" class=""></path><path fill="#304056" d="M41.423 12.33v.06c0 .97-.78 1.75-1.75 1.75h-25.59c-.97 0-1.75-.78-1.75-1.75a3.395 3.395 0 0 1 3.4-3.4c2.21-.03 4.11-1.3 5.04-3.14 1.16-2.28 3.46-3.85 6.01-3.88h.11c2.56 0 4.86 1.59 6.01 3.87a5.762 5.762 0 0 0 5.05 3.15c1.9.02 3.47 1.45 3.47 3.34z" opacity="1" data-original="#304056" class=""></path><path d="M39.672 14.64h-25.59c-1.24 0-2.25-1.01-2.25-2.25 0-1.043.408-2.025 1.147-2.764a3.868 3.868 0 0 1 2.754-1.136 5.216 5.216 0 0 0 4.594-2.866c1.268-2.493 3.8-4.124 6.45-4.154h.116c2.651 0 5.186 1.627 6.456 4.145a5.251 5.251 0 0 0 4.61 2.875c2.222.023 3.963 1.71 3.963 3.84v.06c0 1.24-1.01 2.25-2.25 2.25zM26.782 2.47c-2.276.027-4.462 1.442-5.564 3.606A6.212 6.212 0 0 1 15.74 9.49c-.783 0-1.51.3-2.054.843-.55.55-.854 1.28-.854 2.057 0 .69.561 1.25 1.25 1.25h25.59c.69 0 1.25-.56 1.25-1.25v-.06c0-1.575-1.306-2.823-2.974-2.84a6.25 6.25 0 0 1-5.49-3.423C31.354 3.881 29.17 2.47 26.892 2.47h-.11z" fill="#000000" opacity="1" data-original="#000000" class=""></path><path fill="#ffffff" d="M28.83 6.652a1.949 1.949 0 0 1-1.962 1.961 1.97 1.97 0 0 1-1.961-1.961c0-1.061.9-1.93 1.961-1.93 1.094 0 1.962.869 1.962 1.93z" opacity="1" data-original="#ffffff" class=""></path><path d="M26.869 9.113a2.464 2.464 0 0 1-2.462-2.461c0-1.34 1.104-2.43 2.462-2.43s2.46 1.09 2.46 2.43a2.435 2.435 0 0 1-2.46 2.461zm0-3.89c-.792 0-1.462.654-1.462 1.429 0 .806.656 1.461 1.462 1.461.819 0 1.46-.642 1.46-1.461 0-.788-.655-1.43-1.46-1.43z" fill="#000000" opacity="1" data-original="#000000" class=""></path><path fill="#00fff0" d="M18.155 45.396H12.37c-.826 0-1.495-.67-1.495-1.495v-5.786c0-.826.67-1.495 1.495-1.495h5.785c.826 0 1.496.67 1.496 1.495v5.786c0 .826-.67 1.495-1.496 1.495z" opacity="1" data-original="#488ff7" class=""></path><path d="M18.156 45.896H12.37c-1.101 0-1.996-.895-1.996-1.996v-5.785c0-1.1.895-1.995 1.996-1.995h5.786c1.1 0 1.995.895 1.995 1.995V43.9c0 1.101-.895 1.996-1.995 1.996zM12.37 37.12a.996.996 0 0 0-.996.995V43.9c0 .55.447.996.996.996h5.786a.997.997 0 0 0 .995-.996v-5.785a.996.996 0 0 0-.995-.995zM42.883 37.992h-3.707a.5.5 0 1 1 0-1h3.707a.5.5 0 1 1 0 1zM36.269 37.992H24.317a.5.5 0 1 1 0-1h11.952a.5.5 0 1 1 0 1zM42.883 41.508h-9.027a.5.5 0 1 1 0-1h9.027a.5.5 0 1 1 0 1zM30.9 41.508h-6.583a.5.5 0 1 1 0-1H30.9a.5.5 0 1 1 0 1zM36.269 45.024H24.317a.5.5 0 1 1 0-1h11.952a.5.5 0 1 1 0 1z" fill="#000000" opacity="1" data-original="#000000" class=""></path><path fill="#00fff0" d="M18.155 57.968H12.37c-.826 0-1.495-.67-1.495-1.496v-5.785c0-.826.67-1.495 1.495-1.495h5.785c.826 0 1.496.67 1.496 1.495v5.785c0 .826-.67 1.496-1.496 1.496z" opacity="1" data-original="#488ff7" class=""></path><path d="M18.156 58.468H12.37c-1.101 0-1.996-.895-1.996-1.995v-5.786c0-1.1.895-1.995 1.996-1.995h5.786c1.1 0 1.995.895 1.995 1.995v5.786c0 1.1-.895 1.995-1.995 1.995zm-5.786-8.776a.996.996 0 0 0-.996.995v5.786c0 .548.447.995.996.995h5.786a.996.996 0 0 0 .995-.995v-5.786a.996.996 0 0 0-.995-.995zM42.883 50.564h-3.707a.5.5 0 1 1 0-1h3.707a.5.5 0 1 1 0 1zM36.269 50.564H24.317a.5.5 0 1 1 0-1h11.952a.5.5 0 1 1 0 1zM42.883 54.08h-9.027a.5.5 0 1 1 0-1h9.027a.5.5 0 1 1 0 1zM30.9 54.08h-6.583a.5.5 0 1 1 0-1H30.9a.5.5 0 1 1 0 1zM36.269 57.596H24.317a.5.5 0 1 1 0-1h11.952a.5.5 0 1 1 0 1zM14.5 42.816a.5.5 0 0 1-.354-.146l-1.09-1.09a.5.5 0 1 1 .707-.707l.736.736 2.263-2.263a.5.5 0 1 1 .707.707l-2.616 2.617a.5.5 0 0 1-.354.146z" fill="#000000" opacity="1" data-original="#000000" class=""></path><path d="M14.5 55.388a.5.5 0 0 1-.354-.146l-1.09-1.09a.5.5 0 1 1 .707-.708l.736.737 2.263-2.263a.5.5 0 1 1 .707.707l-2.616 2.617a.5.5 0 0 1-.354.146z" fill="#000000" opacity="1" data-original="#000000" class=""></path><path fill="#00fff0" d="m65.988 25.636.039 32.713-10.598.013-.038-32.714a2.31 2.31 0 0 1 2.305-2.31l5.982-.007a2.31 2.31 0 0 1 2.31 2.305z" opacity="1" data-original="#488ff7" class=""></path><path d="M55.43 58.862a.501.501 0 0 1-.5-.5l-.039-32.714c0-.748.29-1.454.82-1.985s1.235-.824 1.984-.825l5.982-.007h.004a2.811 2.811 0 0 1 2.808 2.804l.038 32.714a.5.5 0 0 1-.5.5l-10.597.013zm8.251-35.03h-.002l-5.982.006c-.483 0-.936.19-1.278.532s-.529.796-.528 1.277l.037 32.214 9.598-.011-.037-32.214a1.81 1.81 0 0 0-1.808-1.805z" fill="#000000" opacity="1" data-original="#000000" class=""></path><path fill="#ffffff" d="m65.988 25.636.008 6.144-10.598.012-.007-6.144a2.31 2.31 0 0 1 2.305-2.31l5.982-.007a2.31 2.31 0 0 1 2.31 2.305z" opacity="1" data-original="#ffffff" class=""></path><path d="M55.398 32.292a.501.501 0 0 1-.5-.5l-.007-6.144c0-.748.29-1.454.82-1.985s1.235-.824 1.984-.825l5.982-.007h.004a2.811 2.811 0 0 1 2.808 2.804l.007 6.144a.5.5 0 0 1-.5.5l-10.597.013h-.001zm8.283-8.46h-.002l-5.982.006c-.483 0-.936.19-1.278.532s-.529.796-.528 1.277l.006 5.645 9.598-.012-.006-5.643a1.81 1.81 0 0 0-1.808-1.806z" fill="#000000" opacity="1" data-original="#000000" class=""></path><path fill="#304056" d="m65.988 25.636.004 3.437-10.597.012-.004-3.437a2.31 2.31 0 0 1 2.305-2.31l5.982-.007a2.31 2.31 0 0 1 2.31 2.305z" opacity="1" data-original="#304056" class=""></path><path d="M55.395 29.585a.501.501 0 0 1-.5-.5l-.004-3.437c0-.748.29-1.454.82-1.985s1.235-.824 1.984-.825l5.982-.007h.004a2.811 2.811 0 0 1 2.808 2.804l.004 3.438a.5.5 0 0 1-.5.5l-10.597.012h-.001zm8.286-5.754h-.002l-5.982.007c-.483 0-.936.19-1.278.532s-.529.796-.528 1.277l.003 2.938 9.598-.011-.003-2.937a1.81 1.81 0 0 0-1.808-1.806z" fill="#000000" opacity="1" data-original="#000000" class=""></path><path fill="#b9b9b9" d="m66.027 58.35-3.195 5.178-1.241 2.024a1.004 1.004 0 0 1-1.71.002l-1.246-2.02-3.206-5.172z" opacity="1" data-original="#b9b9b9"></path><path d="M60.736 66.53a1.49 1.49 0 0 1-1.28-.714l-4.452-7.19a.5.5 0 0 1 .424-.764l10.598-.013a.502.502 0 0 1 .427.763l-4.436 7.201a1.488 1.488 0 0 1-1.28.717h-.001zm-4.41-7.67 3.981 6.432a.496.496 0 0 0 .429.238.493.493 0 0 0 .428-.238l3.966-6.442z" fill="#000000" opacity="1" data-original="#000000" class=""></path><path fill="#ffffff" d="m60.705 38.991.023 19.368" opacity="1" data-original="#ffffff" class=""></path><path d="M60.728 58.859a.5.5 0 0 1-.5-.5l-.022-19.368a.5.5 0 1 1 1-.001l.022 19.368a.5.5 0 0 1-.5.5z" fill="#000000" opacity="1" data-original="#000000" class=""></path><path fill="#304056" d="m62.832 63.528-1.241 2.024a1.004 1.004 0 0 1-1.71.002l-1.246-2.02c.57-.486 1.3-.771 2.098-.772.798-.001 1.529.283 2.1.766z" opacity="1" data-original="#304056" class=""></path><path d="M60.736 66.53a1.49 1.49 0 0 1-1.28-.714l-1.247-2.02a.501.501 0 0 1 .102-.644c.674-.574 1.514-.917 2.426-.89a3.74 3.74 0 0 1 2.419.885.5.5 0 0 1 .102.643l-1.241 2.023a1.488 1.488 0 0 1-1.28.717h-.001zm-1.433-2.866 1.004 1.628a.496.496 0 0 0 .429.238.493.493 0 0 0 .428-.238l1.001-1.632a2.709 2.709 0 0 0-1.428-.398h-.003c-.517 0-1.004.138-1.43.402z" fill="#000000" opacity="1" data-original="#000000" class=""></path><path fill="#00fff0" d="M35.193 19.68v11.18a2.1 2.1 0 0 1-2.1 2.1h-12.43a2.1 2.1 0 0 1-2.1-2.1V19.68c0-1.16.94-2.1 2.1-2.1h12.43c1.16 0 2.1.94 2.1 2.1z" opacity="1" data-original="#488ff7" class=""></path><path d="M33.092 33.46h-12.43a2.603 2.603 0 0 1-2.6-2.6V19.68c0-1.434 1.167-2.6 2.6-2.6h12.43c1.434 0 2.6 1.166 2.6 2.6v11.18c0 1.433-1.166 2.6-2.6 2.6zm-12.43-15.38c-.881 0-1.6.717-1.6 1.6v11.18c0 .882.719 1.6 1.6 1.6h12.43c.883 0 1.6-.718 1.6-1.6V19.68c0-.883-.717-1.6-1.6-1.6z" fill="#000000" opacity="1" data-original="#000000" class=""></path><path fill="#304056" d="M29.157 17.58v4.795c0 .229-.264.36-.446.222l-1.732-1.308a.279.279 0 0 0-.335 0l-1.732 1.308a.277.277 0 0 1-.444-.222V17.58z" opacity="1" data-original="#304056" class=""></path><path d="M24.747 23.153a.782.782 0 0 1-.779-.778v-4.794a.5.5 0 0 1 .5-.5h4.689a.5.5 0 0 1 .5.5v4.794a.772.772 0 0 1-.431.695.774.774 0 0 1-.816-.074L26.81 21.79l-1.599 1.207a.766.766 0 0 1-.465.157zm2.065-2.42c.164 0 .326.052.466.155l1.379 1.042v-3.85h-3.689v3.848l1.375-1.038a.782.782 0 0 1 .469-.158z" fill="#000000" opacity="1" data-original="#000000" class=""></path></g></svg>