<svg width="37" height="41" viewBox="0 0 37 41" fill="none" xmlns="http://www.w3.org/2000/svg">
<path d="M20.0425 36.61V38.9785C20.0425 39.4462 19.884 39.835 19.567 40.145C19.2497 40.455 18.8573 40.61 18.39 40.61C17.9227 40.61 17.5355 40.455 17.2285 40.145C16.9212 39.835 16.7675 39.4462 16.7675 38.9785V30.9665C16.7675 30.5042 16.9233 30.1167 17.235 29.804C17.5467 29.4913 17.9377 29.335 18.408 29.335C18.8753 29.335 19.2645 29.4913 19.5755 29.804C19.8868 30.1167 20.0425 30.5042 20.0425 30.9665V33.335H34.9665C35.4322 33.335 35.8225 33.4927 36.1375 33.808C36.4525 34.1237 36.61 34.5147 36.61 34.981C36.61 35.4443 36.4525 35.8317 36.1375 36.143C35.8225 36.4543 35.4322 36.61 34.9665 36.61H20.0425ZM1.6315 36.61C1.16383 36.61 0.775 36.4515 0.465 36.1345C0.155 35.8172 0 35.4268 0 34.9635C0 34.5002 0.155 34.1128 0.465 33.8015C0.775 33.4905 1.16383 33.335 1.6315 33.335H12.186C12.6567 33.335 13.0378 33.4927 13.3295 33.808C13.6215 34.1237 13.7675 34.5147 13.7675 34.981C13.7675 35.4443 13.6098 35.8317 13.2945 36.143C12.9792 36.4543 12.589 36.61 12.124 36.61H1.6315ZM13.099 17.896H23.525L25.376 22.9355C25.4847 23.2565 25.6715 23.5142 25.9365 23.7085C26.2015 23.9028 26.5117 24 26.867 24C27.4537 24 27.9068 23.7622 28.2265 23.2865C28.5465 22.8108 28.6025 22.3088 28.3945 21.7805L20.3685 1.01C20.2605 0.693998 20.071 0.446666 19.8 0.267999C19.529 0.0893326 19.2198 0 18.8725 0H17.6705C17.3232 0 17.0148 0.0976659 16.7455 0.292999C16.4762 0.488333 16.2875 0.743998 16.1795 1.06L8.2035 21.8025C7.9875 22.3358 8.04417 22.8353 8.3735 23.301C8.70283 23.767 9.14783 24 9.7085 24C10.0645 24 10.3828 23.898 10.6635 23.694C10.9445 23.49 11.1522 23.2283 11.2865 22.909L13.099 17.896ZM14.173 15.026L18.249 3.586H18.337L22.401 15.026H14.173Z" fill="white"/>
</svg>
