<svg xmlns="http://www.w3.org/2000/svg" version="1.1" xmlns:xlink="http://www.w3.org/1999/xlink" width="512" height="512" x="0" y="0" viewBox="0 0 300.832 237.183" style="enable-background:new 0 0 512 512" xml:space="preserve" class=""><g><path d="M120.3 140.487h31.016v-11.334h-30.432c-.1 3.267-.25 6.636-.45 10.086-.025.422-.074.838-.134 1.248zM106.463 152.426c-.285 0-.576-.008-.867-.028a13.823 13.823 0 0 1-7.521-2.755v45.177h189.24v-4.666h-15.666V144.32H119.151c-2.234 4.801-7.097 8.106-12.688 8.106zM93.529 22.499c0 8.032-3.345 15.292-8.707 20.478.136.586.281 1.171.42 1.757 1.35.046 3.048.241 4.983.733a380.28 380.28 0 0 0 17.414-20.259c.934.199 1.871.372 2.805.562a390.958 390.958 0 0 0 9.699 30.848 384.682 384.682 0 0 0 18.556-26.444c.945.102 1.892.185 2.837.278a389.117 389.117 0 0 0 10.352 24.523 409.16 409.16 0 0 0 5.855-.593 386.13 386.13 0 0 0 12.28-22.462c.949.004 1.898.004 2.848 0a384.902 384.902 0 0 0 10.208 18.905c3.453-.6 7.028-1.269 10.712-2.019a386.718 386.718 0 0 0 7.566-18.354c.946-.093 1.894-.176 2.839-.278a380.357 380.357 0 0 0 9.421 14.003 326.546 326.546 0 0 0 14.734-4.258 386.654 386.654 0 0 0 4.1-14.148c.935-.19 1.872-.363 2.806-.562a377.41 377.41 0 0 0 7.949 9.601 265.553 265.553 0 0 0 18.179-7.572 389.98 389.98 0 0 0 1.661-9.361c.914-.287 1.83-.564 2.742-.859a371.057 371.057 0 0 0 5.455 5.405c7.331-3.801 14.52-8.042 21.447-12.755.067-.965.142-1.932.202-2.897 1.482-.642 2.97-1.269 4.444-1.935l-.634-1.404c-64.265 29.016-136.089 34.6-203.272 16.783.059.755.099 1.514.099 2.284z" fill="#00fff0" opacity="1" data-original="#000000"></path><path d="M177.736 54.754c-18.683 2.948-35.002 4.169-46.646 4.653-11.645.482-18.571.225-18.59.227l-.072 2c.023-.006 7.927.283 20.947-.329l16.367 23.87 12.568-26.273a445.21 445.21 0 0 0 4.801-.597L185.49 80.56l10.068-27c2.09-.43 4.203-.883 6.33-1.357l20.141 20.519 7.779-27.982a298.401 298.401 0 0 0 5.801-1.885l22.674 18.101 4.35-28.751a246.827 246.827 0 0 0 5.684-2.697l25.51 14.248-.406-28.547a198.602 198.602 0 0 0 7.412-5.152l-1.18-1.615c-37.747 27.591-84.551 40.418-121.917 46.312zM112.428 61.636v-.002zM37.982 224.819c0 6.83 5.537 12.363 12.363 12.363 6.828 0 12.365-5.533 12.365-12.363v-90.271h4.635v90.271c0 6.83 5.537 12.363 12.363 12.363 6.828 0 12.365-5.533 12.365-12.363V74.861a43.596 43.596 0 0 1 1.779 4.237c2.818 7.813 5.189 20.63 5.18 40.638.002 5.515-.176 11.573-.564 18.224a7.999 7.999 0 0 0 7.994 8.466 8 8 0 0 0 7.98-7.534c.402-6.932.592-13.299.592-19.155-.041-30.181-4.863-46.887-11.436-56.931-3.285-4.987-7.129-8.185-10.678-9.956-3.42-1.723-6.424-2.111-8.227-2.134-.117-.005-.232-.018-.35-.018H45.711c-.116 0-.23.012-.345.018-1.583.019-4.086.315-7.001 1.56-1.987.832-4.099 2.115-6.185 3.919-2.725 2.356-5.402 5.602-7.695 9.901-4.087 7.607-7.255 18.428-8.682 34.412-.002.021 0 .042-.002.063a188.437 188.437 0 0 0-.519 7.751c-.17 3.576-.264 7.37-.265 11.417.002 5.854.189 12.221.596 19.155a8 8 0 1 0 15.973-.937c-.391-6.65-.568-12.705-.568-18.219 0-4.497.12-8.623.336-12.42.106-1.873.234-3.672.386-5.383l.002-.016c.074-.85.156-1.672.241-2.483 1.265-12.052 3.655-19.788 6-24.602v30.448l-4.685 3.172a203.456 203.456 0 0 0-.156 3.729l4.558-3.086 17.945 26.494-33.533 22.711-17.944-26.491 8.922-6.043a341.614 341.614 0 0 1-.052-3.588L0 131.01l21.311 31.463 10.672-7.229 6-4.064v73.639zM61.227 58.882h7.6l1.9 7.5-.289.456a8.434 8.434 0 0 1-5.412 1.962 8.434 8.434 0 0 1-5.407-1.958l-.292-.46zm-.228 12.179c1.297.486 2.662.74 4.026.739h.008c1.363 0 2.726-.254 4.021-.74l5.474 40.322-9.5 12-9.5-12z" fill="#00fff0" opacity="1" data-original="#000000"></path><circle cx="65.027" cy="22.5" r="22.5" fill="#00fff0" opacity="1" data-original="#000000"></circle><path d="m33.897 119.85 1.64-1.147 11.008 15.752-1.64 1.146zM33.227 130.268c.045 1.227.095 2.46.154 3.714l4.453 6.376 1.641-1.145zM213.648 129.153h44.666v11.334h-44.666z" fill="#00fff0" opacity="1" data-original="#000000"></path></g></svg>