<svg xmlns="http://www.w3.org/2000/svg" version="1.1" xmlns:xlink="http://www.w3.org/1999/xlink" width="512" height="512" x="0" y="0" viewBox="0 0 144.191 237.183" style="enable-background:new 0 0 512 512" xml:space="preserve" class=""><g><path d="M127.895 56.968c-5.618-5.278-11.106-6.181-13.918-6.246-.158-.01-.314-.024-.475-.024h-9.399l3.487 2.95 3.174 6.243-6.127.832 2.623 4.371s-9.346 16.444-11.969 19.981c-.377.509-.661.81-.873.963-.05.093-.127.135-.233.115-.107.021-.184-.022-.234-.115-.213-.153-.495-.454-.872-.962-2.623-3.537-11.971-19.981-11.971-19.981l2.623-4.371-6.127-.832 3.176-6.243 3.486-2.95h-9.398c-.362 0-.716.034-1.065.082a7.97 7.97 0 0 0-5.907 1.737L51.529 65.789l4.252-17.149a7.968 7.968 0 0 0 .227-1.938L37.016 57.843l-6.764 27.281a7.999 7.999 0 0 0 12.804 8.139l24.083-19.532V224.82c0 6.83 5.537 12.363 12.363 12.363 6.828 0 12.365-5.533 12.365-12.363v-90.271h4.635v90.271c0 6.83 5.537 12.363 12.363 12.363 6.828 0 12.365-5.533 12.365-12.363V74.792c4.47 9.298 8.452 28.029 6.396 63.167a8 8 0 0 0 7.995 8.467 8.001 8.001 0 0 0 7.979-7.533c2.471-42.247-2.813-69.811-15.705-81.925z" fill="#00fff0" opacity="1" data-original="#000000" class=""></path><path d="M93.899 82.373s.14.485.285 1.108c.145-.623.285-1.108.285-1.108l6.725-22.689.399-8.985H86.775l.399 8.985zM94.184 45c12.428 0 22.5-10.073 22.5-22.5S106.612 0 94.184 0c-12.426 0-22.5 10.073-22.5 22.5S81.758 45 94.184 45zm14.035-13.868C105.31 35.843 100.115 39 94.184 39s-11.126-3.157-14.035-7.868zM32.911 57.7l23.322-13.68a10.64 10.64 0 0 1-4.599-7.122L29.566 52.519l1.133 1.755A30.46 30.46 0 0 0 29 55.7c-2.782 2.502-6.419 6.628-9.47 13C13.297 81.724 1.37 76.222.865 75.979L0 77.783c.177.085 3.256 1.535 7.25 1.535 1.55 0 3.238-.219 4.947-.819 3.878-1.363 6.952-4.369 9.139-8.936 2.812-5.873 6.179-9.754 8.776-12.143a30.066 30.066 0 0 1 1.686-1.446z" fill="#00fff0" opacity="1" data-original="#000000" class=""></path><circle cx="62.184" cy="35.132" r="8.5" transform="rotate(-32.83 62.233 35.15)" fill="#00fff0" opacity="1" data-original="#000000" class=""></circle></g></svg>