<svg width="25" height="25" viewBox="0 0 25 25" fill="none" xmlns="http://www.w3.org/2000/svg">
<path d="M1.7035 24.574C1.2145 24.574 0.808334 24.4123 0.485001 24.089C0.161667 23.766 0 23.3598 0 22.8705V1.7035C0 1.21417 0.161667 0.808001 0.485001 0.485001C0.808334 0.161667 1.2145 0 1.7035 0C2.1925 0 2.59867 0.161667 2.922 0.485001C3.24533 0.808001 3.407 1.21417 3.407 1.7035V22.8705C3.407 23.3598 3.24533 23.766 2.922 24.089C2.59867 24.4123 2.1925 24.574 1.7035 24.574ZM15.4405 12.437L23.797 20.7935C24.137 21.1335 24.2987 21.5313 24.282 21.987C24.2653 22.4427 24.087 22.8405 23.747 23.1805C23.407 23.5205 23.0008 23.6905 22.5285 23.6905C22.0562 23.6905 21.65 23.5205 21.31 23.1805L11.772 13.6425C11.5893 13.4598 11.4567 13.2692 11.374 13.0705C11.2913 12.8722 11.25 12.661 11.25 12.437C11.25 12.213 11.2913 12.0018 11.374 11.8035C11.4567 11.6048 11.5893 11.4142 11.772 11.2315L21.36 1.6435C21.7 1.3035 22.1062 1.1335 22.5785 1.1335C23.0508 1.1335 23.457 1.3035 23.797 1.6435C24.137 1.9835 24.307 2.38967 24.307 2.862C24.307 3.33433 24.137 3.7405 23.797 4.0805L15.4405 12.437Z" fill="white"/>
</svg>
