<svg xmlns="http://www.w3.org/2000/svg" version="1.1" xmlns:xlink="http://www.w3.org/1999/xlink" width="512" height="512" x="0" y="0" viewBox="0 0 512 512" style="enable-background:new 0 0 512 512" xml:space="preserve" class=""><g><path fill-rule="evenodd" d="M411.816 187.886a108.668 108.668 0 0 0-8.111-41.248 33.656 33.656 0 0 1-57.082-35.6l10.824-18.748a126.868 126.868 0 0 0-66.088-19.275v34.868a8.332 8.332 0 0 1-12.906 6.985 18.6 18.6 0 1 0 0 31.166 8.333 8.333 0 0 1 12.906 6.986v34.867h37.66A8.333 8.333 0 0 1 336 200.793a18.6 18.6 0 1 0 31.167 0 8.333 8.333 0 0 1 6.985-12.907zM340.028 67.125l2.808-8.9a15.957 15.957 0 0 1 15.046-11.313c19.109-.463 37.811-2.652 60.358-12.236l43.519 75.376a21.2 21.2 0 0 0 3.057 4.077 52.688 52.688 0 0 1-14.385 12.183l-31.39 18.123a125.161 125.161 0 0 0-14.95-28.306l-12.162 21.066a18.657 18.657 0 0 1-32.316-18.657l17.64-30.554a140.674 140.674 0 0 0-37.225-20.858zm-61.317 399.026h-98.27C187.118 486.369 206.59 501 229.575 501s42.458-14.63 49.136-34.849zM109.1 254.113c0-62.941 53.783-114.053 120.456-114.872v34.886a8.332 8.332 0 0 1-12.9 6.967 18.6 18.6 0 1 0 0 31.166 8.332 8.332 0 0 1 12.905 6.967v34.886h37.679a8.333 8.333 0 0 1 6.967 12.906 18.6 18.6 0 1 0 31.166 0 8.333 8.333 0 0 1 6.967-12.906h37.678c0 61.451-35.286 86.823-54.275 119.392q-.8-.048-1.61-.048H164.986q-.811 0-1.61.048c-18.99-32.569-54.276-57.941-54.276-119.392zm365.649-151.562a6.327 6.327 0 0 0 8.617 2.309l10.009-5.779a6.327 6.327 0 0 0 2.31-8.617l-44.061-76.315a6.327 6.327 0 0 0-8.617-2.309L433 17.619a6.326 6.326 0 0 0-2.309 8.617l44.06 76.315zM436.887 252.2a7.5 7.5 0 0 1 0 15h-36.206a7.5 7.5 0 0 1 0-15zM54.452 369.653a7.482 7.482 0 0 1-7.5-12.949l31.354-18.1a7.482 7.482 0 1 1 7.5 12.949l-31.355 18.1zM22.975 267.2a7.5 7.5 0 0 1 0-15h36.206a7.5 7.5 0 0 1 0 15zm24.006-104.5a7.468 7.468 0 0 1 7.442-12.949l31.355 18.1a7.467 7.467 0 0 1-7.441 12.949zm73-78.505a7.468 7.468 0 0 1 12.949-7.442l18.1 31.356a7.467 7.467 0 0 1-12.949 7.441zm102.45-31.451a7.5 7.5 0 0 1 15 0V88.95a7.5 7.5 0 1 1-15 0zM412.91 356.7a7.482 7.482 0 1 1-7.5 12.949l-31.354-18.1a7.482 7.482 0 1 1 7.5-12.949zm-118.782 31.757H164.986a11.924 11.924 0 0 0-.051 23.847h129.244a11.924 11.924 0 0 0-.051-23.847zM164.986 427.3a11.924 11.924 0 1 0 0 23.847h129.142a11.924 11.924 0 1 0 0-23.847z" fill="#00fff0" opacity="1" data-original="#000000"></path></g></svg>