<svg width="37" height="37" viewBox="0 0 37 37" fill="none" xmlns="http://www.w3.org/2000/svg">
<path d="M0 33.335V14.3C0 13.3517 0.332667 12.5448 0.998 11.8795C1.66333 11.2142 2.47017 10.8815 3.4185 10.8815H10.8935V3.4185C10.8935 2.47017 11.225 1.66333 11.888 0.997998C12.551 0.332665 13.355 0 14.3 0H33.3225C34.2708 0 35.0777 0.332665 35.743 0.997998C36.4083 1.66333 36.741 2.47017 36.741 3.4185V33.335C36.741 34.28 36.4083 35.084 35.743 35.747C35.0777 36.41 34.2708 36.7415 33.3225 36.7415H3.4185C2.47017 36.7415 1.66333 36.41 0.998 35.747C0.332667 35.084 0 34.28 0 33.335ZM25.8595 33.335H33.3225V3.4185H14.3V10.8815H22.441C23.3893 10.8815 24.1962 11.2142 24.8615 11.8795C25.5268 12.5448 25.8595 13.3517 25.8595 14.3V33.335ZM14.3 33.335H22.441V14.3H14.3V33.335ZM3.4185 33.335H10.8935V14.3H3.4185V33.335Z" fill="white"/>
</svg>
