<svg xmlns="http://www.w3.org/2000/svg" version="1.1" xmlns:xlink="http://www.w3.org/1999/xlink" width="512" height="512" x="0" y="0" viewBox="0 0 512 512" style="enable-background:new 0 0 512 512" xml:space="preserve" class=""><g><path d="M216.814 254.389a6.387 6.387 0 0 1-7.373.722l-13.1-7.58a11.162 11.162 0 0 0-15.185 4.1l-3.738 6.419a11.207 11.207 0 0 0 4.1 15.184l12.632 7.322a6.35 6.35 0 0 1 3.532 6.96 60.441 60.441 0 0 0 0 23.176 6.351 6.351 0 0 1-3.532 6.961l-12.3 7.115a11.127 11.127 0 0 0-5.491 6.961 10.9 10.9 0 0 0 1.083 8.43l3.712 6.42a11.192 11.192 0 0 0 15.211 4.1l12.838-7.424a6.331 6.331 0 0 1 7.6.567c5.233 4.589 13.019 9.384 19.67 11.446a6.365 6.365 0 0 1 4.692 6.136v15.133a11.146 11.146 0 0 0 11.112 11.111h7.424a11.146 11.146 0 0 0 11.112-11.111V361.4a6.366 6.366 0 0 1 4.691-6.136c6.652-2.062 14.437-6.883 19.645-11.446a6.336 6.336 0 0 1 7.6-.567l13.277 7.657c4.589 2.732 11.962.747 14.566-3.893l3.944-6.832a11.191 11.191 0 0 0-4.1-15.21l-12.761-7.4a6.348 6.348 0 0 1-3.4-6.884 59.427 59.427 0 0 0 0-23.176 6.366 6.366 0 0 1 3.557-6.96l12.633-7.322a11.184 11.184 0 0 0 4.073-15.184l-3.712-6.419a11.2 11.2 0 0 0-15.211-4.1l-12.864 7.425a6.338 6.338 0 0 1-7.6-.567c-5.208-4.563-12.993-9.384-19.645-11.447a6.364 6.364 0 0 1-4.691-6.135v-15.13a11.147 11.147 0 0 0-11.112-11.112h-7.424a11.147 11.147 0 0 0-11.112 11.112v15.133a6.363 6.363 0 0 1-4.692 6.135c-6.651 2.063-14.437 6.884-19.67 11.447ZM174.509 125.54 138 130.954l5.8 8.3c-52.05 36.736-83.218 96.082-83.089 159.862a6.377 6.377 0 0 0 9.667 5.44 6.313 6.313 0 0 0 3.068-5.44c.232-60.016 28.59-114.773 77.676-149.447l5.8 8.327Zm25.677 360.741a196.329 196.329 0 0 0 131.633-7.167 6.366 6.366 0 1 0-4.949-11.73 182.815 182.815 0 0 1-123.023 6.7l2.913-9.694-36.35 6.317L197.273 496Zm247-173.552 13.174-34.468-10.08 1.006a195.356 195.356 0 0 0-107.4-155.093 6.364 6.364 0 1 0-5.672 11.394A182.5 182.5 0 0 1 437.6 280.53l-10.08.98Zm-37.046 5.646a34 34 0 1 1-34 34 34 34 0 0 1 34-34Zm15.06 18.974c-13.38-13.354-36.324-3.867-36.324 15.03s22.944 28.41 36.324 15.03a21.255 21.255 0 0 0 0-30.06Zm-75 117.094V443.95c0-24.646 16.937-48.312 41.2-48.312h37.484c24.285 0 41.223 23.666 41.223 48.312v10.493a18.46 18.46 0 0 1-4.331 12.09c-14.669 17.2-34.314 21.913-55.634 21.913-21.294 0-40.938-4.717-55.607-21.913a18.455 18.455 0 0 1-4.331-12.09Zm12.735-10.493v10.493a5.455 5.455 0 0 0 1.237 3.815c12.04 14.127 28.307 17.453 45.966 17.453 17.685 0 33.953-3.326 45.992-17.453a5.455 5.455 0 0 0 1.237-3.815V443.95a40.111 40.111 0 0 0-8.739-25.574c-5.13-6.161-12.117-10-19.748-10H391.4c-7.605 0-14.591 3.842-19.722 10a40.111 40.111 0 0 0-8.739 25.574Zm-261.1-125.575a34 34 0 1 1-33.978 34 34 34 0 0 1 33.978-34Zm15.055 18.974c-13.354-13.354-36.3-3.867-36.3 15.03s22.944 28.41 36.3 15.03a21.254 21.254 0 0 0 0-30.06ZM41.9 454.443V443.95c0-24.646 16.938-48.312 41.2-48.312h37.484c24.285 0 41.222 23.666 41.222 48.312v10.493a18.455 18.455 0 0 1-4.331 12.09c-14.669 17.2-34.313 21.913-55.633 21.913-21.295 0-40.939-4.717-55.608-21.913a18.46 18.46 0 0 1-4.331-12.09Zm12.732-10.493v10.493a5.455 5.455 0 0 0 1.237 3.815c12.039 14.127 28.306 17.453 45.966 17.453 17.685 0 33.952-3.326 45.992-17.453a5.455 5.455 0 0 0 1.237-3.815V443.95a40.111 40.111 0 0 0-8.739-25.574c-5.131-6.161-12.117-10-19.748-10H83.093c-7.606 0-14.592 3.842-19.722 10a40.111 40.111 0 0 0-8.739 25.574ZM256 16a34 34 0 1 1-34 34 34.019 34.019 0 0 1 34-34Zm15.03 18.974c-13.354-13.38-36.3-3.867-36.3 15.03s22.945 28.384 36.3 15.03a21.255 21.255 0 0 0 0-30.06Zm-74.995 117.094v-10.519c0-24.62 16.938-48.286 41.223-48.286h37.484c24.259 0 41.2 23.666 41.2 48.286v10.519a18.455 18.455 0 0 1-4.306 12.065c-14.694 17.221-34.339 21.938-55.633 21.938-21.32 0-40.965-4.717-55.634-21.938a18.346 18.346 0 0 1-4.331-12.065Zm12.736-10.519v10.519a5.455 5.455 0 0 0 1.237 3.815c12.039 14.127 28.307 17.453 45.992 17.453s33.927-3.326 45.966-17.453a5.455 5.455 0 0 0 1.237-3.815v-10.519A40.09 40.09 0 0 0 294.464 116c-5.13-6.161-12.117-10-19.722-10h-37.484c-7.605 0-14.617 3.842-19.748 10a40.09 40.09 0 0 0-8.739 25.548ZM256 258.462a40.643 40.643 0 1 1-40.63 40.655A40.648 40.648 0 0 1 256 258.462Zm19.722 20.908a27.9 27.9 0 1 0 0 39.469 27.913 27.913 0 0 0 0-39.469Zm-91.236 29.23a71.02 71.02 0 0 1 0-19l-9.333-5.362a23.856 23.856 0 0 1-8.687-32.56l3.686-6.42a23.865 23.865 0 0 1 32.56-8.713l9.307 5.362a71.886 71.886 0 0 1 16.422-9.487v-10.75a23.876 23.876 0 0 1 23.847-23.847h7.424a23.892 23.892 0 0 1 23.847 23.847v10.75a71.038 71.038 0 0 1 16.422 9.513l9.332-5.388a23.8 23.8 0 0 1 32.509 8.713l3.944 6.832a23.844 23.844 0 0 1-8.971 32.148l-9.281 5.362a71.02 71.02 0 0 1 0 19l9.307 5.363a23.847 23.847 0 0 1 8.713 32.56l-3.944 6.832a23.81 23.81 0 0 1-32.277 8.3l-9.332-5.388a72.044 72.044 0 0 1-16.422 9.539v10.724a23.892 23.892 0 0 1-23.847 23.846h-7.424a23.875 23.875 0 0 1-23.847-23.846v-10.719a72.044 72.044 0 0 1-16.422-9.539l-9.332 5.388a23.837 23.837 0 0 1-32.535-8.714l-3.918-6.831a23.811 23.811 0 0 1 9.28-32.329Z" fill="#00fff0" opacity="1" data-original="#000000" class=""></path></g></svg>