<svg xmlns="http://www.w3.org/2000/svg" viewBox="0 0 64 64" id="WebDevelopment">
  <path fill="#d2ffec" d="M3.1 5.7h53.1v44.1H3.1z" class="colorfff2d2 svgShape"></path>
  <path fill="#ffffff" d="M5 7.8h51.2V5.7H3.1v44.1H5z" class="colorffffff svgShape"></path>
  <path fill="#9de0c4" d="M3.1 14h53.1v2H3.1z" class="colore0ca9d svgShape"></path>
  <path fill="#87f9ca" d="M3.1 5.7h53.1v8.2H3.1z" class="colorf9a287 svgShape"></path>
  <path fill="#c0ffe5" d="M56.2 5.7v2.1H5V14H3.1V5.7z" class="colorffcdc0 svgShape"></path>
  <path fill="#5adba6" d="M56.2 5.7h4.6v8.2h-4.6z" class="colordb785a svgShape"></path>
  <path fill="#94eac6" d="M56.2 14h4.6v35.8h-4.6z" class="coloread194 svgShape"></path>
  <path fill="#2d634d" d="M60.9 5.2H3.1c-.3 0-.5.2-.5.5v44.1c0 .3.2.5.5.5h57.7c.3 0 .5-.2.5-.5V5.7c.1-.2-.1-.5-.4-.5zm-.5 8.3h-3.6V6.2h3.6v7.3zm-4.6-7.3v7.2H3.6V6.2h52.2zM3.6 14.5h52.1v34.8H3.6V14.5zm53.2 34.8V14.5h3.6v34.8h-3.6z" class="color63312d svgShape"></path>
  <path fill="#9df9d3" d="M42.8 9.8c0 .8-.7 1.5-1.5 1.5s-1.5-.7-1.5-1.5.7-1.5 1.5-1.5c.9 0 1.5.7 1.5 1.5z" class="colorf9dd9d svgShape"></path>
  <path fill="#2d634d" d="M41.4 11.8c-1.1 0-2-.9-2-2s.9-2 2-2 2 .9 2 2-1 2-2 2zm0-3c-.5 0-1 .4-1 1 0 .5.4 1 1 1s1-.4 1-1c-.1-.6-.5-1-1-1z" class="color63312d svgShape"></path>
  <path fill="#b4ffe0" d="M48.1 9.8c0 .8-.7 1.5-1.5 1.5s-1.5-.7-1.5-1.5.7-1.5 1.5-1.5 1.5.7 1.5 1.5z" class="color9ce2c2 svgShape"></path>
  <path fill="#2d634d" d="M46.6 11.8c-1.1 0-2-.9-2-2s.9-2 2-2 2 .9 2 2-.9 2-2 2zm0-3c-.5 0-1 .4-1 1 0 .5.4 1 1 1s1-.4 1-1-.5-1-1-1z" class="color63312d svgShape"></path>
  <path fill="#9df9d3" d="M53.3 9.8c0 .8-.7 1.5-1.5 1.5s-1.5-.7-1.5-1.5.7-1.5 1.5-1.5 1.5.7 1.5 1.5z" class="colorf9dd9d svgShape"></path>
  <path fill="#2d634d" d="M51.8 11.8c-1.1 0-2-.9-2-2s.9-2 2-2 2 .9 2 2-.9 2-2 2zm0-3c-.5 0-1 .4-1 1 0 .5.4 1 1 1s1-.4 1-1-.4-1-1-1z" class="color63312d svgShape"></path>
  <path fill="#87f9ca" d="M60.9 51.4v-3.2l-2.3-.5c-.1-.3-.2-.5-.3-.8l1.2-2-2.3-2.3-2 1.2c-.3-.1-.5-.2-.8-.3l-.4-2.2h-3.2l-.5 2.3c-.3.1-.5.2-.7.3l-1.9-1.3-2.3 2.3 1.2 2c-.1.3-.2.5-.3.8l-2.3.4v3.2l2.3.5c.1.3.2.5.3.8l-1.2 1.9 2.3 2.3 2-1.2c.3.1.5.2.8.3l.5 2.3h3.2l.5-2.3c.3-.1.5-.2.8-.3l1.9 1.2 2.3-2.3-1.2-2c.1-.3.2-.5.3-.8l2.1-.3zm-8.5 1.7c-1.8 0-3.3-1.5-3.3-3.3s1.5-3.3 3.3-3.3 3.3 1.5 3.3 3.3c0 1.8-1.5 3.3-3.3 3.3z" class="colorf9a287 svgShape"></path>
  <path fill="#2d634d" d="M54 58.8h-3.2c-.2 0-.4-.2-.5-.4l-.4-2c-.1 0-.2-.1-.3-.1l-1.7 1.1c-.2.1-.5.1-.6-.1L44.9 55c-.2-.2-.2-.4-.1-.6l1.1-1.7c0-.1-.1-.2-.1-.3l-2-.5c-.2-.1-.4-.3-.4-.5v-3.2c0-.2.2-.4.4-.5l2-.4c0-.1.1-.2.1-.3l-1.1-1.7c-.1-.2-.1-.5.1-.6l2.3-2.3c.2-.2.4-.2.6-.1l1.7 1.1c.1 0 .2-.1.3-.1l.4-2c.1-.2.3-.4.5-.4H54c.2 0 .4.2.5.4l.4 2c.1 0 .2.1.3.1l1.7-1.1c.2-.1.5-.1.6.1l2.3 2.3c.2.2.2.4.1.6L58.8 47c0 .1.1.2.1.3l2 .4c.2.1.4.3.4.5v3.2c0 .2-.2.4-.4.5l-2 .4c0 .1-.1.2-.1.3l1.1 1.7c.1.2.1.5-.1.6l-2.3 2.3c-.2.2-.4.2-.6.1l-1.7-1.1c-.1 0-.2.1-.3.1l-.5 2c0 .3-.2.5-.4.5zm-2.8-1h2.4l.4-1.9c0-.2.2-.3.3-.4.3-.1.5-.2.7-.3.2-.1.3-.1.5 0l1.6 1 1.7-1.7-1-1.6c-.1-.1-.1-.3 0-.5s.2-.5.3-.7c.1-.2.2-.3.4-.3l1.9-.4v-2.4l-1.9-.4c-.2 0-.3-.2-.4-.3-.1-.3-.2-.5-.3-.7-.1-.2-.1-.3 0-.5l1-1.6-1.7-1.7-1.6 1c-.1.1-.3.1-.5 0s-.5-.2-.7-.3c-.2-.1-.3-.2-.3-.4l-.4-1.9h-2.4l-.4 1.9c0 .2-.2.3-.3.4-.2.1-.5.2-.7.3-.2.1-.3.1-.5 0l-1.6-1L46 45l1 1.6c.1.1.1.3 0 .5s-.2.5-.3.7c-.1.2-.2.3-.4.3l-1.9.4v2.4l1.9.4c.2 0 .3.2.4.3.1.3.2.5.3.7.1.2.1.3 0 .5l-1 1.6 1.7 1.7 1.6-1c.1-.1.3-.1.5 0s.5.2.7.3c.2.1.3.2.3.4l.4 2z" class="color63312d svgShape"></path>
  <circle cx="52.4" cy="49.8" r="3.3" fill="#e1fff3" class="colorfffbe1 svgShape"></circle>
  <path fill="#2d634d" d="M52.4 53.6c-2.1 0-3.8-1.7-3.8-3.8 0-2.1 1.7-3.8 3.8-3.8s3.8 1.7 3.8 3.8c0 2.1-1.7 3.8-3.8 3.8zm0-6.6c-1.5 0-2.8 1.2-2.8 2.8s1.2 2.8 2.8 2.8 2.8-1.2 2.8-2.8S54 47 52.4 47z" class="color63312d svgShape"></path>
  <path fill="#84ffcc" d="M14.2 26.3h30.9v9.5H14.2z" class="color84dbff svgShape"></path>
  <path fill="#2d634d" d="M45.1 36.3H14.2c-.3 0-.5-.2-.5-.5v-9.5c0-.3.2-.5.5-.5h30.9c.3 0 .5.2.5.5v9.5c0 .3-.2.5-.5.5zm-30.3-1h29.9v-8.5H14.8v8.5z" class="color63312d svgShape"></path>
  <path fill="#2d634d" d="M19.5 29.2h.9l.7 3.2.8-3.2h.9l.8 3.2.7-3.2h.9L24 33.3h-1l-.8-2.9-.8 2.9h-1l-.9-4.1zm6.7 4.1c-.3 0-.5-.2-.5-.5s.2-.5.5-.5.5.2.5.5-.2.5-.5.5zm.9-4.1h.9l.7 3.2.8-3.2h.9l.8 3.2.7-3.2h.9l-1.2 4.1h-1l-.6-3-.8 2.9h-1l-1.1-4zm6.7 4.1c-.3 0-.5-.2-.5-.5s.2-.5.5-.5.5.2.5.5-.2.5-.5.5zm.9-4.1h.9l.7 3.2.8-3.2h.9l.8 3.2.7-3.2h.9l-1.2 4.1h-1l-.8-2.9-.8 2.9h-1l-.9-4.1z" class="color63312d svgShape"></path>
</svg>
